<?xml version="1.0" standalone="no"?><!DOCTYPE svg PUBLIC "-//W3C//DTD SVG 1.1//EN" "http://www.w3.org/Graphics/SVG/1.1/DTD/svg11.dtd"><svg t="1560762025170" class="icon" style="" viewBox="0 0 1024 1024" version="1.1" xmlns="http://www.w3.org/2000/svg" p-id="7949" xmlns:xlink="http://www.w3.org/1999/xlink" width="64" height="64"><defs><style type="text/css"></style></defs><path d="M739.41739719 227.58808464c-6.2168142-11.10145417-19.98261802 0-39.07711984-32.41624758-11.10145417-19.09450185-45.7379921-16.8742103-46.62610948-24.86725798-1.77623228-19.98261802 1.33217422-70.16119203-13.76580259-70.16119203s-32.41624758 33.74842178-39.07711982 50.17857406c-6.66087225 16.8742103-17.76232765 16.43015223-32.41624761 26.19943216-31.08407217 20.42667606-50.17857405 78.15423971-43.51770178 110.12642922-8.43710575 16.8742103-40.40929405 63.50031976-91.92004229 75.045832-51.95480632 11.54551225-90.58786809 93.25221773-112.34671958 141.65455827-21.75885028 48.40234175-6.66087225 174.95892199-1.77623228 198.04994768 2.66434964 11.9895703 0.44405806 27.5316076-1.77623228 42.18552754-73.26959975 134.10556985 70.60525009 219.80879796 233.13054369 160.74906012 68.38495974-24.86725798 30.64001408-35.52465407-31.08407336-23.0910257-67.05278554 13.76580381-206.9311115-1.77623228-174.958922-89.69975195 31.97218831 6.2168142 82.15076356 4.44058193 95.47250807 4.88464 29.75189795 0.88811616 127.44469759 6.2168142 146.0951414-6.2168142 17.31826835-39.52117792-28.86378183-38.63306177-49.2904579-40.40929406 13.76580381-6.66087225 25.75537413-30.19595604 25.75537412-44.40581793 18.20638571 40.40929405 35.52465407 103.02149767 95.02844998 79.48641396 16.8742103-6.66087225 6.66087225-23.53508375 6.66087348-23.53508376s13.32174575-1.77623228 13.32174452-18.20638453c0-15.09797801-35.08059601-6.66087225-38.63306177-19.98261802-3.55246576-13.32174575-1.77623228-131.44122142-1.77623229-148.3154317 0-16.8742103 3.55246576-45.7379921 37.74494567-90.14381125 41.29741021-54.17509785 7.99304768-162.08123555 11.10145417-176.73515425 3.55246576-15.54203609 30.19595604-19.98261802 43.96175983-39.96523602 9.32522189-12.87768765 14.65391994-31.52813026 9.76927994-40.40929405z m-64.38843591 4.44058072c-8.43710575 0-15.54203609-6.66087225-15.54203607-15.5420361 0-8.43710575 6.66087225-15.54203609 15.54203607-15.54203607s15.54203609 6.66087225 15.54203609 15.54203607-7.10493033 15.54203609-15.54203609 15.5420361z" fill="#707070" p-id="7950"></path></svg>